<svg width="161" height="185" viewBox="0 0 161 185" fill="none" xmlns="http://www.w3.org/2000/svg">
<path d="M47.772 101.36V80.368H143.772V101.36H47.772ZM70.812 0.751999C83.7827 0.751999 95.7293 3.05599 106.652 7.66399C117.575 12.1013 127.047 18.5013 135.068 26.864C143.26 35.056 149.575 44.6987 154.012 55.792C158.62 66.8853 160.924 79.088 160.924 92.4C160.924 105.712 158.62 117.915 154.012 129.008C149.575 140.101 143.26 149.829 135.068 158.192C127.047 166.384 117.575 172.784 106.652 177.392C95.7293 181.829 83.7827 184.048 70.812 184.048C56.476 184.048 43.2493 181.659 31.132 176.88C19.1853 172.101 9.116 165.104 0.924 155.888L17.052 139.76C24.22 147.099 32.156 152.475 40.86 155.888C49.7347 159.301 59.292 161.008 69.532 161.008C78.9187 161.008 87.6227 159.301 95.644 155.888C103.665 152.475 110.577 147.781 116.38 141.808C122.353 135.664 126.961 128.411 130.204 120.048C133.447 111.515 135.068 102.299 135.068 92.4C135.068 82.5013 133.447 73.3707 130.204 65.008C126.961 56.4747 122.353 49.2213 116.38 43.248C110.577 37.104 103.665 32.3253 95.644 28.912C87.6227 25.4987 78.9187 23.792 69.532 23.792C59.292 23.792 49.7347 25.4987 40.86 28.912C32.156 32.3253 24.22 37.7013 17.052 45.04L0.924 28.912C9.116 19.696 19.1853 12.6987 31.132 7.92C43.2493 3.14133 56.476 0.751999 70.812 0.751999Z" fill="#89AC76"/>
</svg>
